{
 "asset": {
  "version": "2.0",
  "generator": "sl3-tools"
 },
 "scene": 0,
 "scenes": [
  {
   "nodes": [
    0
   ]
  }
 ],
 "nodes": [
  {
   "mesh": 0,
   "name": "entity"
  }
 ],
 "meshes": [
  {
   "primitives": [
    {
     "attributes": {
      "POSITION": 0,
      "NORMAL": 1,
      "TEXCOORD_0": 2
     },
     "indices": 4,
     "material": 0
    },
    {
     "attributes": {
      "POSITION": 0,
      "NORMAL": 1,
      "TEXCOORD_0": 2
     },
     "indices": 5,
     "material": 0
    },
    {
     "attributes": {
      "POSITION": 0,
      "NORMAL": 1,
      "TEXCOORD_0": 2
     },
     "indices": 6,
     "material": 0
    },
    {
     "attributes": {
      "POSITION": 0,
      "NORMAL": 1,
      "TEXCOORD_0": 2
     },
     "indices": 7,
     "material": 0
    },
    {
     "attributes": {
      "POSITION": 0,
      "NORMAL": 1,
      "TEXCOORD_0": 2
     },
     "indices": 8,
     "material": 0
    },
    {
     "attributes": {
      "POSITION": 0,
      "NORMAL": 1,
      "TEXCOORD_0": 2
     },
     "indices": 9,
     "material": 1
    },
    {
     "attributes": {
      "POSITION": 0,
      "NORMAL": 1,
      "TEXCOORD_0": 2
     },
     "indices": 10,
     "material": 2
    },
    {
     "attributes": {
      "POSITION": 0,
      "NORMAL": 1,
      "TEXCOORD_0": 2
     },
     "indices": 11,
     "material": 2
    }
   ],
   "name": "entity"
  }
 ],
 "materials": [
  {
   "name": "entity_cloth"
  },
  {
   "name": "entity_mask"
  },
  {
   "name": "eyes"
  }
 ],
 "accessors": [
  {
   "bufferView": 0,
   "componentType": 5126,
   "count": 192,
   "type": "VEC3",
   "min": [
    -0.38,
    0.0,
    -0.14
   ],
   "max": [
    0.38,
    2.19,
    0.155
   ]
  },
  {
   "bufferView": 1,
   "componentType": 5126,
   "count": 192,
   "type": "VEC3"
  },
  {
   "bufferView": 2,
   "componentType": 5126,
   "count": 192,
   "type": "VEC2"
  },
  {
   "bufferView": 3,
   "componentType": 5125,
   "count": 288,
   "type": "SCALAR"
  },
  {
   "bufferView": 3,
   "byteOffset": 0,
   "componentType": 5125,
   "count": 36,
   "type": "SCALAR"
  },
  {
   "bufferView": 3,
   "byteOffset": 144,
   "componentType": 5125,
   "count": 36,
   "type": "SCALAR"
  },
  {
   "bufferView": 3,
   "byteOffset": 288,
   "componentType": 5125,
   "count": 36,
   "type": "SCALAR"
  },
  {
   "bufferView": 3,
   "byteOffset": 432,
   "componentType": 5125,
   "count": 36,
   "type": "SCALAR"
  },
  {
   "bufferView": 3,
   "byteOffset": 576,
   "componentType": 5125,
   "count": 36,
   "type": "SCALAR"
  },
  {
   "bufferView": 3,
   "byteOffset": 720,
   "componentType": 5125,
   "count": 36,
   "type": "SCALAR"
  },
  {
   "bufferView": 3,
   "byteOffset": 864,
   "componentType": 5125,
   "count": 36,
   "type": "SCALAR"
  },
  {
   "bufferView": 3,
   "byteOffset": 1008,
   "componentType": 5125,
   "count": 36,
   "type": "SCALAR"
  }
 ],
 "bufferViews": [
  {
   "buffer": 0,
   "byteOffset": 0,
   "byteLength": 2304,
   "target": 34962
  },
  {
   "buffer": 0,
   "byteOffset": 2304,
   "byteLength": 2304,
   "target": 34962
  },
  {
   "buffer": 0,
   "byteOffset": 4608,
   "byteLength": 1536,
   "target": 34962
  },
  {
   "buffer": 0,
   "byteOffset": 6144,
   "byteLength": 1152,
   "target": 34963
  }
 ],
 "buffers": [
  {
   "uri": "entity.bin",
   "byteLength": 7296
  }
 ]
}